<svg width="110" height="68" viewBox="0 0 110 68" fill="none" xmlns="http://www.w3.org/2000/svg">
<path d="M47.0783 42.0253C45.4657 42.0253 46.2693 38.2681 46.2693 37.7267C46.4063 37.4592 45.0625 21.4712 45.0625 21.4712C45.1996 20.9296 45.4657 20.2577 46.4063 20.2577H46.6737C48.8264 20.2577 50.7051 18.5108 50.7051 16.3635C50.7051 14.2108 48.9581 12.4625 46.6737 12.4625C44.5277 12.4625 42.6424 14.2108 42.6424 16.3635C42.6424 16.7667 42.6424 17.1657 42.7795 17.5703C42.7795 17.5703 43.5817 19.5859 41.8389 19.3184C41.8389 19.3184 26.6544 24.5564 25.9825 24.6935C24.0972 28.0529 19.2637 26.306 17.7829 25.2283C17.3797 24.6935 16.5761 24.2891 15.6369 24.2891C14.0081 24.3007 12.6899 25.6165 12.6752 27.2453C12.8123 28.7248 14.156 30.0685 15.7685 30.0685C16.3101 30.0685 16.982 29.9315 17.3811 29.6655C19.7999 28.456 24.2356 29.2596 24.7717 31.4123V31.5493C24.9061 31.9471 27.9968 38.1311 28.4013 38.6659C30.4169 42.4297 25.4396 43.9107 25.4396 43.9107C24.0959 43.9107 22.8892 45.1173 22.8892 46.5981C22.8892 48.2093 24.2329 49.5531 25.8455 49.5531C27.4552 49.5531 28.7991 48.2093 28.7991 46.5968C29.2035 43.5061 30.8147 41.4905 33.7763 41.3535C34.1741 41.4905 41.4344 40.9557 41.9692 40.8187C44.122 41.2217 42.9099 42.9713 42.9099 45.9249C42.9099 48.0723 44.6568 49.8219 46.9412 49.8219C49.0925 49.8219 50.9724 48.0723 50.9724 45.9249C51.1081 43.7749 49.3599 42.0253 47.0769 42.0253H47.0783Z" fill="#7735A7"/>
<path d="M55.9497 22.2747C54.7363 22.2747 53.7971 22.8149 53.3925 23.8845C52.1859 25.6328 49.63 26.0372 48.0175 25.2283C47.7501 24.5564 30.8173 19.9903 30.8173 20.1273C28.67 21.3341 26.6544 17.5703 26.7861 15.822V15.6916C26.9217 15.2872 26.9217 14.8827 26.9217 14.4783C26.9217 12.3323 25.1749 10.584 22.8905 10.584C20.7377 10.584 18.8592 12.3309 18.8592 14.4783C18.8592 16.2264 20.0659 17.5703 21.4097 18.2421C23.6995 19.1827 26.7847 21.8703 26.5173 23.7541C27.458 25.3653 25.3107 33.6953 25.4423 34.3672C24.2343 35.5806 21.8141 35.3078 20.8748 34.9088C20.4717 34.3672 19.6681 34.0998 18.8592 34.0998C16.7065 34.0998 14.828 35.8466 14.828 37.994C14.828 40.1468 16.5748 41.8949 18.8592 41.8949C20.2029 41.8949 21.278 41.3535 22.0816 40.2824C23.2949 38.5356 25.3107 36.923 27.0588 36.923C27.3263 37.3221 48.9568 28.8605 48.9568 28.7248C49.0939 27.9158 52.3161 27.1123 55.1408 27.7841H55.9497C57.5609 27.7841 58.9047 26.4404 58.9047 24.8305C58.9047 23.2127 57.5609 22.2733 55.9484 22.2733L55.9497 22.2747Z" fill="#C46BE8"/>
<path d="M49.0939 30.0685C49.0939 36.7457 43.6772 42.1624 37 42.1624C30.3228 42.1624 24.9061 36.7457 24.9061 30.0685C24.9061 23.3913 30.3228 17.9747 37 17.9747C43.6772 17.9747 49.0939 23.3913 49.0939 30.0685Z" fill="#C46BE8"/>
<path d="M40.0907 41.4905C40.4965 40.6816 39.0156 40.4155 37.8089 40.4155C36.5955 40.4155 35.3888 41.0873 35.6563 41.8936C38.8785 46.7285 36.4652 47.4004 34.9844 48.3464C33.7776 48.8812 32.9687 50.362 32.9687 51.7057C32.9687 53.8517 34.7156 55.6 37 55.6C39.2844 55.6 41.0313 53.8531 41.0313 51.7057C41.1684 47.9419 38.7469 42.6972 40.0907 41.4905ZM57.0193 33.9628C56.2171 33.9628 55.4081 34.0999 54.8733 34.5043C52.4532 35.4436 50.3005 33.6953 48.6893 32.6189C47.8872 32.0841 46.9425 33.428 46.6737 33.8324C46.4063 34.2356 46.0019 36.1155 47.6144 36.1155C50.3019 35.1748 53.6613 39.878 53.6613 39.878C54.2015 41.2217 55.6769 42.0253 57.2935 42.0253C59.4395 42.0253 61.3248 40.2839 61.3248 38.1311C60.9203 35.7123 59.172 33.9628 57.0193 33.9628ZM33.5035 10.584C36.0607 15.822 35.9236 17.8376 34.4496 18.3779C33.2361 19.3184 35.2517 20.5252 36.7325 20.2591C38.2067 19.9903 39.5504 19.3184 38.6112 17.9747C36.3281 13.9433 39.2831 11.2559 39.2831 11.2559C40.2237 10.7211 40.8956 9.50893 40.8956 8.29959C40.8956 6.14959 39.1527 4.39999 36.8643 4.39999C34.5799 4.39999 32.8329 6.14826 32.8329 8.30093C32.8329 8.83573 32.9687 9.50759 33.2361 10.0479C33.2361 10.4469 33.2361 10.4469 33.5049 10.584H33.5035Z" fill="#DB8FF1"/>
<path d="M34.8473 30.0685C32.7013 30.0685 30.816 28.3216 30.816 26.1743C30.816 24.0216 32.5643 22.2733 34.8473 22.2733C37.1371 22.2733 38.8785 24.0216 38.8785 26.1743C38.8785 28.3203 37.1371 30.0685 34.8473 30.0685Z" fill="#EBA7F8"/>
<path d="M32.8316 35.9784C31.6249 35.9784 30.816 35.1761 30.816 33.9628C30.816 32.756 31.6249 31.9471 32.8316 31.9471C34.0451 31.9471 34.8473 32.756 34.8473 33.9628C34.8473 35.1761 34.0451 35.9784 32.8316 35.9784Z" fill="#FDE2FD"/>
<path d="M39.9563 38.1311C38.3437 38.1311 37 36.7873 37 35.1748C37 33.5649 38.3437 32.2212 39.9563 32.2212C41.5661 32.2212 42.9099 33.5649 42.9099 35.1761C42.9099 36.7873 41.5661 38.1311 39.9549 38.1311H39.9563Z" fill="#F8C6FC"/>
<path d="M46.4 15.84H53.56C54.52 19.6267 55.3733 23.04 56.12 26.08C56.44 27.36 56.7467 28.6267 57.04 29.88C57.36 31.1333 57.64 32.2667 57.88 33.28C58.12 34.2667 58.32 35.0933 58.48 35.76C58.64 36.4 58.72 36.76 58.72 36.84C58.7467 36.76 58.88 36.4 59.12 35.76C59.3867 35.0933 59.7067 34.2667 60.08 33.28C60.4533 32.2667 60.8667 31.1333 61.32 29.88C61.7733 28.6267 62.24 27.36 62.72 26.08C63.8133 23.04 65.0667 19.6267 66.48 15.84H74.28L62.12 45H55.4L46.4 15.84ZM82.4347 45H76.5947V15.88H82.4347V45ZM85.9994 15.88H98.0794C99.1994 15.88 100.359 16.0133 101.559 16.28C102.759 16.5467 103.853 17.04 104.839 17.76C105.853 18.4533 106.679 19.4133 107.319 20.64C107.959 21.8667 108.266 23.44 108.239 25.36L108.199 35C108.199 36.76 107.853 38.28 107.159 39.56C106.493 40.8133 105.639 41.84 104.599 42.64C103.559 43.44 102.399 44.0267 101.119 44.4C99.866 44.8 98.626 45 97.3994 45H85.9994V15.88ZM103.159 26.84C103.159 25.0267 102.706 23.7067 101.799 22.88C100.919 22.0267 99.3727 21.6 97.1594 21.6H92.4394V38.68H97.5194C98.2394 38.68 98.9327 38.6133 99.5994 38.48C100.293 38.32 100.893 38.0667 101.399 37.72C101.933 37.3733 102.359 36.9067 102.679 36.32C102.999 35.7333 103.159 34.9867 103.159 34.08V26.84Z" fill="black"/>
<path d="M18.84 36.08H24.6C24.6 37.4667 24.3733 38.7067 23.92 39.8C23.4667 40.8933 22.84 41.8267 22.04 42.6C21.24 43.3733 20.2933 43.96 19.2 44.36C18.1067 44.7867 16.92 45 15.64 45H10.24C9.36 45 8.42667 44.8667 7.44 44.6C6.45333 44.3333 5.53333 43.88 4.68 43.24C3.85333 42.6267 3.16 41.8 2.6 40.76C2.04 39.6933 1.76 38.3733 1.76 36.8V24.96C1.76 23.7067 1.97333 22.5333 2.4 21.44C2.85333 20.32 3.49333 19.36 4.32 18.56C5.14667 17.7333 6.14667 17.08 7.32 16.6C8.52 16.12 9.85333 15.88 11.32 15.88H15.72C16.8133 15.88 17.8133 16.0533 18.72 16.4C19.6533 16.72 20.48 17.1733 21.2 17.76C21.92 18.32 22.5333 19 23.04 19.8C23.5733 20.6 24 21.4667 24.32 22.4L18.84 24.12C18.4933 23.3733 17.9867 22.7733 17.32 22.32C16.68 21.84 15.9733 21.6 15.2 21.6H12.16C11.4667 21.6 10.8667 21.7333 10.36 22C9.85333 22.24 9.42667 22.56 9.08 22.96C8.76 23.36 8.52 23.8133 8.36 24.32C8.2 24.8267 8.12 25.3467 8.12 25.88V35.44C8.12 36.1067 8.16 36.72 8.24 37.28C8.34667 37.8133 8.53333 38.28 8.8 38.68C9.06667 39.08 9.42667 39.4 9.88 39.64C10.36 39.8533 10.9733 39.96 11.72 39.96H15.12C16.3467 39.96 17.2533 39.5867 17.84 38.84C18.4267 38.0667 18.76 37.1467 18.84 36.08Z" fill="black"/>
<path d="M14.8945 48.7812V51.7793H13.8594L13.7715 49.7773H9.82617V62.0137L11.418 62.1406V63H7.0625V62.1406L8.6543 62.0137V49.7773H4.70898L4.63086 51.7793H3.58594V48.7812H14.8945ZM22.1016 48.791C23.625 48.791 24.7936 49.123 25.6074 49.7871C26.4277 50.4512 26.8379 51.4115 26.8379 52.668C26.8379 53.4102 26.6198 54.0775 26.1836 54.6699C25.7474 55.2624 25.1322 55.6921 24.3379 55.959C25.2168 56.1803 25.8483 56.5775 26.2324 57.1504C26.623 57.7168 26.8184 58.4329 26.8184 59.2988V60.5977C26.8184 61.099 26.8965 61.4701 27.0527 61.7109C27.209 61.9518 27.4466 62.082 27.7656 62.1016L28.2441 62.1309V63H27.502C26.8118 63 26.3301 62.7656 26.0566 62.2969C25.7832 61.8281 25.6465 61.2552 25.6465 60.5781V59.3184C25.6465 58.459 25.3698 57.7786 24.8164 57.2773C24.2695 56.7695 23.5046 56.5059 22.5215 56.4863H18.9473V62.0137L20.5391 62.1504V63H16.1934V62.1504L17.7852 62.0137V49.7871L16.1934 49.6504V48.791H22.1016ZM18.9473 55.4902H21.9648C23.2474 55.4902 24.1849 55.2331 24.7773 54.7188C25.3698 54.2044 25.666 53.5176 25.666 52.6582C25.666 51.7467 25.3698 51.0404 24.7773 50.5391C24.1849 50.0378 23.293 49.7871 22.1016 49.7871H18.9473V55.4902ZM29.4551 62.1406L30.5 62.0625L35.5488 48.7812H36.6523L41.6523 62.0625L42.7168 62.1406V63H39.2109V62.1406L40.4512 62.043L39.2793 58.8594H32.8926L31.7109 62.043L32.9512 62.1406V63H29.4551V62.1406ZM33.2832 57.8145H38.8984L36.1348 50.2949H36.0762L33.2832 57.8145ZM54.6602 53.2344H53.752L53.5859 51.0762C53.2083 50.627 52.7168 50.2656 52.1113 49.9922C51.5059 49.7122 50.806 49.5723 50.0117 49.5723C48.4232 49.5723 47.1602 50.1517 46.2227 51.3105C45.2852 52.4629 44.8164 53.9538 44.8164 55.7832V55.9883C44.8164 57.8177 45.2786 59.3151 46.2031 60.4805C47.1341 61.6393 48.3548 62.2188 49.8652 62.2188C50.666 62.2188 51.3919 62.0788 52.043 61.7988C52.7005 61.5189 53.2148 61.1576 53.5859 60.7148L53.752 58.5566H54.6602V61.0566C54.2174 61.6686 53.5697 62.1797 52.7168 62.5898C51.8704 63 50.9199 63.2051 49.8652 63.2051C48.0423 63.2051 46.5514 62.5312 45.3926 61.1836C44.2337 59.8294 43.6543 58.0977 43.6543 55.9883V55.8027C43.6543 53.6868 44.2305 51.9551 45.3828 50.6074C46.5417 49.2533 48.0553 48.5762 49.9238 48.5762C50.9785 48.5762 51.9193 48.7845 52.7461 49.2012C53.5794 49.6113 54.2174 50.1224 54.6602 50.7344V53.2344ZM56.5254 62.1406L58.1172 62.0137V49.7773L56.5254 49.6504V48.7812H60.8711V49.6504L59.2793 49.7773V55.3242H61.2227L66.0078 49.7285L64.6406 49.6504V48.7812H68.6152V49.6504L67.3652 49.7676L62.2773 55.7734L67.7656 62.0234L69.0449 62.1406V63H64.9922V62.1406L66.3398 62.0625L61.2324 56.3105H59.2793V62.0137L60.8711 62.1406V63H56.5254V62.1406ZM78.957 56.1152H73.127V62.0137H79.8457L79.9336 59.8848H80.9688V63H70.373V62.1406L71.9648 62.0137V49.7773L70.373 49.6504V48.7812H71.9648H80.9199V51.9062H79.8848L79.7969 49.7773H73.127V55.1191H78.957V56.1152ZM88.8398 48.791C90.3633 48.791 91.5319 49.123 92.3457 49.7871C93.166 50.4512 93.5762 51.4115 93.5762 52.668C93.5762 53.4102 93.3581 54.0775 92.9219 54.6699C92.4857 55.2624 91.8704 55.6921 91.0762 55.959C91.9551 56.1803 92.5866 56.5775 92.9707 57.1504C93.3613 57.7168 93.5566 58.4329 93.5566 59.2988V60.5977C93.5566 61.099 93.6348 61.4701 93.791 61.7109C93.9473 61.9518 94.1849 62.082 94.5039 62.1016L94.9824 62.1309V63H94.2402C93.5501 63 93.0684 62.7656 92.7949 62.2969C92.5215 61.8281 92.3848 61.2552 92.3848 60.5781V59.3184C92.3848 58.459 92.1081 57.7786 91.5547 57.2773C91.0078 56.7695 90.2428 56.5059 89.2598 56.4863H85.6855V62.0137L87.2773 62.1504V63H82.9316V62.1504L84.5234 62.0137V49.7871L82.9316 49.6504V48.791H88.8398ZM85.6855 55.4902H88.7031C89.9857 55.4902 90.9232 55.2331 91.5156 54.7188C92.1081 54.2044 92.4043 53.5176 92.4043 52.6582C92.4043 51.7467 92.1081 51.0404 91.5156 50.5391C90.9232 50.0378 90.0312 49.7871 88.8398 49.7871H85.6855V55.4902Z" fill="black"/>
</svg>
